<svg width="68" height="85" viewBox="0 0 68 85" fill="none" xmlns="http://www.w3.org/2000/svg">
<path d="M14.2584 3.71406C8.92282 5.42144 3.55181 7.12883 2.28892 7.52012L0.0302734 8.2494V23.9359C0.0302734 33.3265 0.101423 40.4049 0.208122 41.5788C0.990678 49.7957 4.54778 57.5856 10.488 64.0595C11.8397 65.5356 33.2886 84.2279 33.8935 84.4589C34.1423 84.548 52.9947 68.4701 56.0894 65.5178C61.4604 60.4135 65.6578 52.9437 67.1518 45.794C67.9343 42.0235 67.9877 40.6184 67.9343 23.9003L67.8809 8.17816L55.8047 4.37213C49.1708 2.29124 43.7108 0.601645 43.6751 0.619432C43.6575 0.655006 44.6535 2.62917 45.9162 5.03018L48.2104 9.38763L51.6429 10.4902C53.5283 11.0949 56.3739 12.002 57.9745 12.5L60.8736 13.4069L60.8024 27.8486C60.749 41.721 60.7314 42.3615 60.3756 43.9799C59.0239 50.0802 56.2317 55.2557 51.9455 59.6308C51.1272 60.4667 46.9656 64.1483 42.7148 67.7943C38.4642 71.458 34.7648 74.6416 34.4981 74.8905L34.0357 75.3175L25.8722 68.2922C15.8947 59.6842 14.4007 58.2258 12.0176 54.5621C10.1857 51.7342 8.834 48.6928 8.01589 45.5449C7.21559 42.3437 7.14436 41.152 7.14436 26.8882V13.4247L9.68772 12.6244C11.0748 12.1799 13.9205 11.2727 16.0015 10.6147C18.0645 9.95663 19.7719 9.35201 19.7719 9.29858C19.7719 9.24537 20.7679 7.28882 21.995 4.95903C23.2222 2.61138 24.2182 0.672792 24.2182 0.637219C24.2182 0.530519 24.0047 0.601646 14.2584 3.71406Z" fill="white"/>
<path d="M33.5379 1.15301C33.3779 1.47313 28.896 10.0279 23.596 20.1477L13.9565 38.5554L14.0988 40.0494C14.4189 43.1083 15.5571 46.3454 17.4068 49.2799C18.0649 50.3469 18.2606 50.5426 18.4384 50.3469C18.5451 50.2224 22.0666 43.5707 26.2638 35.5675C30.4434 27.5819 33.9115 21.0368 33.9827 21.0368C34.0359 21.0368 37.5574 27.5107 41.7902 35.4074C46.0232 43.304 49.5624 49.9023 49.6692 50.0802C49.8471 50.3825 49.8825 50.3647 50.1672 49.9914C51.9991 47.5902 53.5109 43.6241 53.9376 40.1204L54.1511 38.3419L44.0491 19.5074C38.5 9.15633 33.9293 0.637238 33.8937 0.619451C33.8759 0.583878 33.7158 0.815085 33.5379 1.15301Z" fill="white"/>
<path d="M29.0202 46.4523L24.1294 56.2164L26.886 58.6175C28.3978 59.9336 30.6208 61.8365 31.8125 62.8325L34.0001 64.6466L34.4803 64.2552C34.7648 64.042 36.9524 62.1388 39.3535 60.0224L43.7464 56.1808L38.8734 46.4345C36.1877 41.0813 33.9823 36.6882 33.9467 36.6882C33.9291 36.6882 31.7058 41.0813 29.0202 46.4523Z" fill="white"/>
</svg>
