<svg width="84" height="84" viewBox="0 0 84 84" fill="none" xmlns="http://www.w3.org/2000/svg">
<path d="M0.523122 42.0858L10.1582 32.4507L19.7942 42.0867L10.1592 51.7218L0.523122 42.0858Z" fill="white"/>
<path d="M32.4737 42.1095L42.1087 32.4744L51.7448 42.1104L42.1097 51.7455L32.4737 42.1095Z" fill="white"/>
<path d="M83.4769 41.9142L73.8418 51.5492L64.2058 41.9132L73.8408 32.2781L83.4769 41.9142Z" fill="white"/>
<path d="M25.9269 48.2179L16.2911 57.8537L32.2791 73.8417L32.2559 73.8648L41.8911 83.5L67.5135 57.8776L57.8783 48.2424L41.9149 64.2059L25.9269 48.2179Z" fill="white"/>
<path d="M58.0738 35.7813L67.7089 26.1462L51.7209 10.1582L51.744 10.135L42.1089 0.499959L16.4858 26.123L26.1209 35.7581L42.0858 19.7932L58.0738 35.7813Z" fill="white"/>
</svg>
