<svg width="24" height="24" viewBox="0 0 24 24" fill="none" xmlns="http://www.w3.org/2000/svg">
<path fill-rule="evenodd" clip-rule="evenodd" d="M17 15.9073C17 15.1056 16.8146 14.3803 16.4438 13.7282C16.073 13.0731 15.5679 12.5691 14.9416 12.2027C14.5022 11.9424 13.873 11.7046 13.0453 11.4907C13.8146 11.223 14.4336 10.885 14.9007 10.4737C15.3693 10.0639 15.7285 9.59132 15.9781 9.05739C16.2263 8.52197 16.3504 7.95663 16.3504 7.36138C16.3504 6.54178 16.1153 5.788 15.6482 5.10151C15.1752 4.41653 14.5022 3.88858 13.6263 3.52365C13.2847 3.38157 12.8788 3.27388 12.4423 3.18714V0H9.45693V2.97177H7.53869V0H4.55328V2.97177H0V5.46943H0.696351C1.15912 5.46943 1.47299 5.5143 1.63796 5.59955C1.80292 5.6848 1.91825 5.80295 1.9854 5.94803C2.05401 6.0946 2.08759 6.43709 2.08759 6.97102V17.0424C2.08759 17.5719 2.05547 17.9084 1.9854 18.0595C1.91825 18.212 1.80292 18.3287 1.63796 18.4079C1.47299 18.4902 1.16058 18.5321 0.696351 18.5321H0V21.0297H4.55328V24H7.53869V21.0297H9.2365C9.31533 21.0297 9.38686 21.0282 9.45839 21.0282V24H12.4438V20.7725C12.9445 20.6738 13.3869 20.5496 13.7591 20.3926C14.7883 19.9723 15.5839 19.3591 16.1518 18.5515C16.7168 17.7499 17 16.866 17 15.9073ZM8.73139 12.943C9.72993 12.943 10.4745 13.0387 10.962 13.2286C11.4496 13.4186 11.8146 13.6998 12.0555 14.0632C12.2978 14.4371 12.4204 14.8903 12.4204 15.4242C12.4204 16.0553 12.2453 16.5923 11.9036 17.0424C11.562 17.4926 11.1431 17.7887 10.6496 17.9293C10.1606 18.0744 9.54015 18.1477 8.7927 18.1477H7.50803C7.08029 18.1477 6.81752 18.1193 6.72117 18.0744C6.62336 18.028 6.55475 17.9413 6.51241 17.8231C6.47883 17.7289 6.45839 17.4059 6.44963 16.8525V12.943H8.73139ZM11.7168 9.25033C11.4715 9.59581 11.1095 9.85754 10.6234 10.0295C10.1387 10.203 9.3927 10.2898 8.38248 10.2913H6.44963V5.8897H8.38248C9.50803 5.8897 10.292 5.96149 10.7314 6.10507C11.1664 6.24715 11.5036 6.48645 11.7358 6.82296C11.9664 7.15947 12.0818 7.56478 12.0818 8.03889C12.0818 8.49654 11.9606 8.90185 11.7168 9.25033Z" fill="white"/>
</svg>
