<svg width="86" height="94" viewBox="0 0 86 94" fill="none" xmlns="http://www.w3.org/2000/svg">
<g filter="url(#filter0_d_865_255)">
<path fill-rule="evenodd" clip-rule="evenodd" d="M13.135 31.6261L26.1557 19.1405C34.775 10.8755 44.2538 11.6004 51.424 19.1036C52.3345 20.0564 53.4556 21.7201 54.126 22.7891C54.2011 22.9006 54.268 23.0035 54.3301 23.099C54.4998 23.36 54.6336 23.5658 54.8002 23.7402C55.2555 24.2166 55.7235 24.3385 56.7374 24.0508C62.9956 22.3863 68.3577 24.3199 73.3656 29.5603C80.3651 36.8849 80.7837 46.6398 71.2475 55.7841L52.9697 73.3108C51.9916 74.2487 51.2264 74.1835 50.3159 73.2307L13.099 34.2853C12.1885 33.3325 12.1569 32.564 13.135 31.6261ZM41.805 35.5166L38.6874 38.5061C37.7093 39.444 36.9442 39.3789 36.0337 38.4261L33.3022 35.5677C32.3916 34.6149 32.3601 33.8464 33.3381 32.9085L36.4558 29.919C38.0452 28.3949 40.2352 28.2349 41.9424 30.0214C43.7065 31.8674 43.3944 33.9926 41.805 35.5166ZM52.5726 53.0362L60.764 45.1815C63.1481 42.8953 63.6964 40.7722 61.8184 38.807C59.9974 36.9015 57.7988 37.2976 55.4147 39.5838L47.2233 47.4385C46.2452 48.3764 46.2768 49.145 47.1874 50.0978L49.9188 52.9561C50.8294 53.9089 51.5945 53.9741 52.5726 53.0362Z" fill="white"/>
<path d="M13.4988 55.951C13.1151 56.319 13.1018 56.9289 13.4691 57.3132L39.7399 84.8041C40.1072 85.1884 40.716 85.2018 41.0997 84.8338L46.3105 79.8371C46.6943 79.4692 46.7076 78.8593 46.3402 78.4749L20.0695 50.9841C19.7022 50.5997 19.0933 50.5864 18.7096 50.9544L13.4988 55.951Z" fill="white"/>
</g>
<defs>
<filter id="filter0_d_865_255" x="-3.5" y="0.5" width="93" height="93" filterUnits="userSpaceOnUse" color-interpolation-filters="sRGB">
<feFlood flood-opacity="0" result="BackgroundImageFix"/>
<feColorMatrix in="SourceAlpha" type="matrix" values="0 0 0 0 0 0 0 0 0 0 0 0 0 0 0 0 0 0 127 0" result="hardAlpha"/>
<feOffset dy="4"/>
<feGaussianBlur stdDeviation="2"/>
<feColorMatrix type="matrix" values="0 0 0 0 0 0 0 0 0 0 0 0 0 0 0 0 0 0 0.25 0"/>
<feBlend mode="normal" in2="BackgroundImageFix" result="effect1_dropShadow_865_255"/>
<feBlend mode="normal" in="SourceGraphic" in2="effect1_dropShadow_865_255" result="shape"/>
</filter>
</defs>
</svg>
