<svg width="28" height="28" viewBox="0 0 28 28" fill="none" xmlns="http://www.w3.org/2000/svg">
<path d="M8.56215 11.7658L13.9997 6.3284L19.4401 11.7686L22.6041 8.60465L13.9997 0L5.3983 8.60185L8.56215 11.7658ZM0 13.9995L3.16409 10.8354L6.32797 13.9993L3.16391 17.1634L0 13.9995ZM8.56215 16.2341L13.9997 21.6715L19.44 16.2314L22.6056 19.3937L22.6041 19.3954L13.9997 27.9999L5.39802 19.3983L5.39354 19.3939L8.56215 16.2341ZM21.672 14.0013L24.8361 10.8372L28 14.0011L24.8359 17.1652L21.672 14.0013Z" fill="white"/>
<path d="M17.209 13.9983H17.2104L13.9997 10.7877L11.627 13.1604H11.6269L11.3543 13.4331L10.7921 13.9955L10.7876 13.9998L10.7921 14.0044L13.9997 17.2122L17.2104 14.0016L17.2119 13.9998L17.209 13.9983Z" fill="white"/>
</svg>
