<svg width="588" height="425" viewBox="0 0 588 425" fill="none" xmlns="http://www.w3.org/2000/svg">
<circle cx="23.5" cy="23.5" r="5.5" fill="white"/>
<circle cx="43.5" cy="23.5" r="5.5" fill="white"/>
<circle cx="63.5" cy="23.5" r="5.5" fill="white"/>
<line x1="2" y1="44.5" x2="586" y2="44.5" stroke="#433F49"/>
<circle cx="40.5" cy="82.5" r="17.5" fill="#433F49"/>
<circle cx="40.5" cy="156.5" r="8.5" fill="#97959B"/>
<circle cx="40.5" cy="193.5" r="8.5" fill="#433F49"/>
<circle cx="40.5" cy="230.5" r="8.5" fill="#433F49"/>
<circle cx="40.5" cy="267.5" r="8.5" fill="#433F49"/>
<circle cx="40.5" cy="394.5" r="8.5" fill="#433F49"/>
<line x1="78.5" y1="45" x2="78.5" y2="423" stroke="#433F49"/>
<rect x="98" y="65" width="93" height="14" rx="3" fill="#97959B"/>
<rect x="98" y="87" width="64" height="10" rx="3" fill="#433F49"/>
<path fill-rule="evenodd" clip-rule="evenodd" d="M565 118H98V117H565V118Z" fill="#433F49"/>
<rect x="110" y="153.5" width="38" height="6" rx="3" fill="#97959B"/>
<rect x="110" y="163.5" width="64" height="10" rx="3" fill="#433F49"/>
<circle cx="184.5" cy="168.5" r="2.5" fill="#53C11F"/>
<rect x="98.5" y="138.5" width="106.75" height="50" rx="11.5" stroke="#433F49"/>
<rect x="229.75" y="153.5" width="54" height="6" rx="3" fill="#97959B"/>
<rect x="229.75" y="163.5" width="39" height="10" rx="3" fill="#433F49"/>
<circle cx="279.25" cy="168.5" r="2.5" fill="#F5841F"/>
<rect x="218.25" y="138.5" width="106.75" height="50" rx="11.5" stroke="#433F49"/>
<rect x="349.5" y="153.5" width="20" height="6" rx="3" fill="#97959B"/>
<rect x="349.5" y="163.5" width="47" height="10" rx="3" fill="#433F49"/>
<circle cx="407" cy="168.5" r="2.5" fill="#53C11F"/>
<rect x="338" y="138.5" width="106.75" height="50" rx="11.5" stroke="#433F49"/>
<rect x="469.25" y="153.5" width="55" height="6" rx="3" fill="#97959B"/>
<rect x="469.25" y="163.5" width="51" height="10" rx="3" fill="#433F49"/>
<circle cx="530.75" cy="168.5" r="2.5" fill="#53C11F"/>
<rect x="457.75" y="138.5" width="106.75" height="50" rx="11.5" stroke="#433F49"/>
<rect x="98" y="209" width="61" height="11" rx="3" fill="#97959B"/>
<path fill-rule="evenodd" clip-rule="evenodd" d="M126.534 260.432C126.534 259.831 126.392 259.286 126.107 258.797C125.822 258.305 125.433 257.927 124.952 257.652C124.614 257.457 124.13 257.278 123.494 257.118C124.086 256.917 124.561 256.663 124.921 256.355C125.281 256.047 125.557 255.693 125.749 255.292C125.94 254.89 126.035 254.466 126.035 254.019C126.035 253.404 125.854 252.839 125.495 252.324C125.132 251.809 124.614 251.413 123.941 251.139C123.678 251.033 123.366 250.952 123.031 250.887V248.495H120.736V250.725H119.261V248.495H116.966V250.725H113.465V252.6H114.001C114.356 252.6 114.598 252.633 114.725 252.697C114.851 252.761 114.94 252.85 114.992 252.959C115.044 253.069 115.07 253.326 115.07 253.726V261.284C115.07 261.681 115.046 261.934 114.992 262.047C114.94 262.162 114.851 262.249 114.725 262.309C114.598 262.37 114.358 262.402 114.001 262.402H113.465V264.276H116.966V266.505H119.261V264.276H120.566C120.627 264.276 120.682 264.275 120.737 264.275V266.505H123.032V264.083C123.417 264.009 123.757 263.916 124.043 263.798C124.834 263.482 125.446 263.022 125.882 262.416C126.317 261.815 126.534 261.151 126.534 260.432ZM120.178 258.208C120.945 258.208 121.518 258.28 121.893 258.422C122.267 258.565 122.548 258.776 122.733 259.048C122.92 259.329 123.014 259.669 123.014 260.07C123.014 260.543 122.879 260.946 122.617 261.284C122.354 261.622 122.032 261.844 121.652 261.949C121.277 262.058 120.8 262.113 120.225 262.113H119.237C118.908 262.113 118.706 262.092 118.632 262.058C118.557 262.024 118.504 261.958 118.472 261.87C118.446 261.799 118.43 261.557 118.424 261.141V258.208H120.178ZM122.473 255.437C122.284 255.696 122.006 255.892 121.632 256.021C121.26 256.152 120.686 256.217 119.91 256.218H118.424V252.915H119.91C120.775 252.915 121.378 252.969 121.715 253.077C122.05 253.183 122.309 253.363 122.487 253.615C122.665 253.868 122.753 254.172 122.753 254.528C122.753 254.871 122.66 255.175 122.473 255.437Z" fill="white"/>
<rect width="46" height="10" rx="3" transform="matrix(-1 0 0 1 184 247.5)" fill="#97959B"/>
<rect width="31" height="6" rx="3" transform="matrix(-1 0 0 1 169 261.5)" fill="#433F49"/>
<rect x="225.5" y="247.5" width="88" height="10" rx="3" fill="#97959B"/>
<rect x="275.5" y="261.5" width="38" height="6" rx="3" fill="#433F49"/>
<rect x="98.5" y="232.5" width="226.5" height="50" rx="11.5" stroke="#433F49"/>
<path fill-rule="evenodd" clip-rule="evenodd" d="M359.5 247.5L366.627 257.002L359.5 259.378L352.373 257.002L359.5 247.5ZM354.317 256.391L359.5 255.815V249.48L354.317 256.391ZM359.5 267.5L352.373 258.591L359.5 261.561L366.627 258.591L359.5 267.5ZM359.043 262.657L356.199 261.472L359.5 265.598V262.848L359.043 262.657Z" fill="white"/>
<rect width="64" height="10" rx="3" transform="matrix(-1 0 0 1 441.5 247.5)" fill="#97959B"/>
<rect width="35" height="6" rx="3" transform="matrix(-1 0 0 1 412.5 261.5)" fill="#433F49"/>
<rect x="501" y="247.5" width="52" height="10" rx="3" fill="#97959B"/>
<rect x="485" y="261.5" width="68" height="6" rx="3" fill="#433F49"/>
<rect x="338" y="232.5" width="226.5" height="50" rx="11.5" stroke="#433F49"/>
<path d="M121.75 314.733V312.605H126.76V309.295H113.072V312.605H118.082V314.741C114.035 314.948 111.003 315.796 111.003 316.811C111.003 317.826 114.035 318.674 118.082 318.881V325.512C118.701 325.638 119.343 325.705 120 325.705C120.598 325.705 121.183 325.65 121.75 325.545V318.889C125.881 318.697 128.997 317.84 128.997 316.811C128.997 315.782 125.881 314.925 121.75 314.733ZM120 318.119C115.486 318.119 111.827 317.439 111.827 316.6C111.827 315.884 114.493 315.283 118.082 315.123V317.556C118.69 317.643 119.303 317.688 119.916 317.688C120.529 317.688 121.142 317.643 121.75 317.556V315.115C125.423 315.265 128.173 315.872 128.173 316.6C128.173 317.439 124.514 318.119 120 318.119Z" fill="white"/>
<rect width="38" height="10" rx="3" transform="matrix(-1 0 0 1 176 307.5)" fill="#97959B"/>
<rect width="48" height="6" rx="3" transform="matrix(-1 0 0 1 186 321.5)" fill="#433F49"/>
<rect x="207.5" y="307.5" width="106" height="10" rx="3" fill="#97959B"/>
<rect x="256.5" y="321.5" width="57" height="6" rx="3" fill="#433F49"/>
<rect x="98.5" y="292.5" width="226.5" height="50" rx="11.5" stroke="#433F49"/>
<path fill-rule="evenodd" clip-rule="evenodd" d="M360.201 317.186L361.679 309.452H358.374L356.584 319.164C355.776 319.608 355.038 320.016 354.458 320.34L354.098 321.98L354.168 321.939C354.358 321.83 354.621 321.68 354.942 321.5C355.323 321.287 355.783 321.032 356.292 320.75L355.408 325.547H364.335L364.902 322.539L359.178 322.539L359.898 318.773C360.655 318.36 361.395 317.957 362.059 317.597L362.406 315.987C361.776 316.329 361.014 316.743 360.201 317.186Z" fill="white"/>
<rect width="46" height="10" rx="3" transform="matrix(-1 0 0 1 423.5 307.5)" fill="#97959B"/>
<rect width="31" height="6" rx="3" transform="matrix(-1 0 0 1 408.5 321.5)" fill="#433F49"/>
<rect x="465" y="307.5" width="88" height="10" rx="3" fill="#97959B"/>
<rect x="515" y="321.5" width="38" height="6" rx="3" fill="#433F49"/>
<rect x="338" y="292.5" width="226.5" height="50" rx="11.5" stroke="#433F49"/>
<path fill-rule="evenodd" clip-rule="evenodd" d="M116.387 373.224L116.962 370.447L122.981 370.447C126.706 370.447 129.537 373.798 128.914 377.471L128.563 379.541C128.072 382.435 125.565 384.552 122.63 384.552L114.042 384.552L114.617 381.775L122.63 381.775C124.21 381.775 125.56 380.635 125.824 379.076L126.175 377.007C126.511 375.029 124.987 373.224 122.981 373.224L116.387 373.224ZM120.208 376.11H111.575L111 378.888L119.588 378.888L120.208 376.11Z" fill="white"/>
<rect width="27" height="10" rx="3" transform="matrix(-1 0 0 1 165 367.5)" fill="#97959B"/>
<rect width="64" height="6" rx="3" transform="matrix(-1 0 0 1 202 381.5)" fill="#433F49"/>
<rect x="264.5" y="367.5" width="49" height="10" rx="3" fill="#97959B"/>
<rect x="232.5" y="381.5" width="81" height="6" rx="3" fill="#433F49"/>
<rect x="98.5" y="352.5" width="226.5" height="50" rx="11.5" stroke="#433F49"/>
<path fill-rule="evenodd" clip-rule="evenodd" d="M360.039 370.007H354.217V376.118H352.3V378.59H354.217V384.993H360.039C361.027 384.993 361.93 384.803 362.746 384.423C363.563 384.044 364.264 383.517 364.852 382.844C365.439 382.171 365.894 381.376 366.216 380.459C366.538 379.543 366.699 378.547 366.699 377.473C366.699 376.442 366.545 375.475 366.237 374.573C365.929 373.663 365.485 372.872 364.905 372.199C364.332 371.518 363.634 370.985 362.811 370.598C361.994 370.204 361.07 370.007 360.039 370.007ZM356.752 378.59V382.823H359.438C360.118 382.823 360.748 382.708 361.328 382.479C361.908 382.243 362.406 381.899 362.821 381.448C363.244 380.997 363.573 380.442 363.81 379.783C364.046 379.117 364.164 378.354 364.164 377.495C364.164 376.571 364.042 375.772 363.799 375.099C363.563 374.426 363.233 373.871 362.811 373.434C362.395 372.997 361.898 372.675 361.318 372.467C360.737 372.252 360.111 372.145 359.438 372.145H356.752V376.118H361.656V378.59H356.752Z" fill="white"/>
<rect width="33" height="10" rx="3" transform="matrix(-1 0 0 1 410.5 367.5)" fill="#97959B"/>
<rect width="61" height="6" rx="3" transform="matrix(-1 0 0 1 438.5 381.5)" fill="#433F49"/>
<rect x="457" y="367.5" width="96" height="10" rx="3" fill="#97959B"/>
<rect x="515" y="381.5" width="38" height="6" rx="3" fill="#433F49"/>
<rect x="338" y="352.5" width="226.5" height="50" rx="11.5" stroke="#433F49"/>
<rect x="97.0229" y="360" width="467.977" height="43" fill="url(#paint0_linear_865_296)"/>
<rect x="1" y="1" width="586" height="423" rx="21" stroke="black" stroke-width="2"/>
<rect x="1" y="1" width="586" height="423" rx="21" stroke="url(#paint1_linear_865_296)" stroke-width="2"/>
<defs>
<linearGradient id="paint0_linear_865_296" x1="331.011" y1="360" x2="331.011" y2="403" gradientUnits="userSpaceOnUse">
<stop stop-color="#191A1F" stop-opacity="0"/>
<stop offset="1" stop-color="#191A1F"/>
</linearGradient>
<linearGradient id="paint1_linear_865_296" x1="14.8553" y1="0.469065" x2="554.321" y2="49.3134" gradientUnits="userSpaceOnUse">
<stop stop-color="#E8B24F"/>
<stop offset="1" stop-color="#DD475E"/>
</linearGradient>
</defs>
</svg>
