<svg width="28" height="28" viewBox="0 0 28 28" fill="none" xmlns="http://www.w3.org/2000/svg">
<path fill-rule="evenodd" clip-rule="evenodd" d="M14.7555 3.51025H6.60432V12.0654H3.9209V15.5265H6.60432V24.4897H14.7555C16.1391 24.4897 17.4024 24.2241 18.5453 23.6927C19.6883 23.1613 20.6709 22.4244 21.493 21.4819C22.3151 20.5395 22.9518 19.4266 23.403 18.1433C23.8541 16.8599 24.0797 15.4663 24.0797 13.9624C24.0797 12.5187 23.8642 11.1651 23.433 9.90186C23.0019 8.62855 22.3803 7.52067 21.5682 6.57822C20.7661 5.62575 19.7886 4.87881 18.6356 4.3374C17.4926 3.78597 16.1992 3.51025 14.7555 3.51025ZM10.1535 15.5265V21.4519H13.9133C14.8658 21.4519 15.7481 21.2914 16.5602 20.9706C17.3723 20.6397 18.0691 20.1585 18.6506 19.5269C19.2421 18.8952 19.7033 18.1182 20.0342 17.1958C20.3651 16.2634 20.5305 15.1956 20.5305 13.9925C20.5305 12.6991 20.3601 11.5812 20.0192 10.6388C19.6883 9.69632 19.2271 8.9193 18.6356 8.30771C18.0541 7.69613 17.3573 7.24495 16.5451 6.9542C15.733 6.65342 14.8558 6.50303 13.9133 6.50303H10.1535V12.0654H17.0184V15.5265H10.1535Z" fill="white"/>
</svg>
