<svg width="43" height="42" viewBox="0 0 43 42" fill="none" xmlns="http://www.w3.org/2000/svg">
<path fill-rule="evenodd" clip-rule="evenodd" d="M0.285645 6.5625C0.285645 2.93813 3.22378 0 6.84814 0H35.7231C39.3475 0 42.2856 2.93813 42.2856 6.5625V35.4375C42.2856 39.0619 39.3475 42 35.7231 42H6.84814C3.22378 42 0.285645 39.0619 0.285645 35.4375V6.5625ZM21.2856 10.5C27.0606 10.5 31.7856 15.225 31.7856 21C31.7856 26.25 27.9794 30.7125 22.7294 31.5V24.0187H25.2231L25.7481 21H22.8606V19.0312C22.8606 18.2437 23.2544 17.4563 24.5669 17.4563H25.8794V14.8313C25.8794 14.8313 24.6981 14.5688 23.5169 14.5688C21.1544 14.5688 19.5794 16.0125 19.5794 18.6375V21H16.9544V24.0187H19.5794V31.3687C14.5919 30.5812 10.7856 26.25 10.7856 21C10.7856 15.225 15.5106 10.5 21.2856 10.5Z" fill="black"/>
</svg>
