<svg width="150" height="90" viewBox="0 0 150 90" fill="none" xmlns="http://www.w3.org/2000/svg">
<path fill-rule="evenodd" clip-rule="evenodd" d="M122.983 42.1667H96.3162V61.8333H122.983V42.1667ZM93.3162 39.1667V64.8333H125.983V39.1667H93.3162Z" fill="white"/>
<path fill-rule="evenodd" clip-rule="evenodd" d="M115.983 38.5V33.3333C115.983 29.8355 113.147 27 109.65 27C106.152 27 103.316 29.8355 103.316 33.3333V38.5H115.983ZM109.65 24C104.495 24 100.316 28.1787 100.316 33.3333V41.5H118.983V33.3333C118.983 28.1787 114.804 24 109.65 24Z" fill="white"/>
<path d="M112.65 50C112.65 51.6569 111.306 53 109.65 53C107.993 53 106.65 51.6569 106.65 50C106.65 48.3431 107.993 47 109.65 47C111.306 47 112.65 48.3431 112.65 50Z" fill="white"/>
<path fill-rule="evenodd" clip-rule="evenodd" d="M109.649 48C110.202 48 110.649 48.3963 110.649 48.8852V56.1148C110.649 56.6037 110.202 57 109.649 57C109.097 57 108.649 56.6037 108.649 56.1148V48.8852C108.649 48.3963 109.097 48 109.649 48Z" fill="white"/>
<path fill-rule="evenodd" clip-rule="evenodd" d="M41.1496 50C43.0826 50 44.6496 48.433 44.6496 46.5C44.6496 44.567 43.0826 43 41.1496 43C39.2166 43 37.6496 44.567 37.6496 46.5C37.6496 48.433 39.2166 50 41.1496 50ZM41.1496 53C44.7394 53 47.6496 50.0899 47.6496 46.5C47.6496 42.9101 44.7394 40 41.1496 40C37.5597 40 34.6496 42.9101 34.6496 46.5C34.6496 50.0899 37.5597 53 41.1496 53Z" fill="white"/>
<path fill-rule="evenodd" clip-rule="evenodd" d="M86.5282 46L81.5889 41.0607L83.7102 38.9393L90.7709 46L83.7102 53.0607L81.5889 50.9393L86.5282 46Z" fill="white"/>
<path d="M44.1702 27.0719L41.9829 25.7461L39.7956 27.0719C36.4072 29.1256 32.6398 30.4758 28.7182 31.0417L24 31.7226L25.9102 49.0902C26.5731 55.1165 30.0011 60.4917 35.1857 63.6342L41.9829 67.7542L48.7801 63.6342C53.7987 60.5923 57.1715 55.4583 57.9834 49.6667H54.9487C54.1621 54.3962 51.3509 58.568 47.225 61.0687L41.9829 64.2461L36.7407 61.0687C32.3538 58.4097 29.4531 53.8614 28.8923 48.7623L27.2991 34.2776L29.1467 34.011C33.4671 33.3875 37.6176 31.9 41.3506 29.6374L41.9829 29.2542L42.6151 29.6374C46.3481 31.9 50.4987 33.3875 54.8191 34.011L56.6667 34.2776L55.744 42.6667H58.762L59.9658 31.7226L55.2476 31.0417C51.326 30.4758 47.5586 29.1256 44.1702 27.0719Z" fill="white"/>
<path fill-rule="evenodd" clip-rule="evenodd" d="M86.8996 47.6667H46.6496V44.6667H86.8996V47.6667Z" fill="white"/>
<rect x="0.5" y="0.5" width="149" height="89" rx="44.5" stroke="#433F49"/>
</svg>
