<svg width="43" height="42" viewBox="0 0 43 42" fill="none" xmlns="http://www.w3.org/2000/svg">
<path d="M0.285645 3.00825C0.285645 1.34663 1.66639 0 3.37002 0H39.2013C40.9049 0 42.2856 1.34663 42.2856 3.00825V38.9917C42.2856 40.6534 40.9049 42 39.2013 42H3.37002C1.66639 42 0.285645 40.6534 0.285645 38.9917V3.00825ZM13.261 35.1592V16.1936H6.95839V35.1592H13.261ZM10.111 13.6028C12.3081 13.6028 13.6758 12.1485 13.6758 10.3267C13.6364 8.46562 12.3108 7.05075 10.153 7.05075C7.99527 7.05075 6.58564 8.46825 6.58564 10.3267C6.58564 12.1485 7.95327 13.6028 10.069 13.6028H10.111ZM22.9945 35.1592V24.5674C22.9945 24.0004 23.0365 23.4334 23.2045 23.0291C23.6586 21.8977 24.6955 20.7244 26.4385 20.7244C28.7196 20.7244 29.6305 22.4621 29.6305 25.0136V35.1592H35.9331V24.2812C35.9331 18.4538 32.8251 15.7448 28.6776 15.7448C25.3334 15.7448 23.8345 17.5823 22.9945 18.8764V18.942H22.9525C22.9665 18.9201 22.9805 18.8982 22.9945 18.8764V16.1936H16.6945C16.7733 17.9734 16.6945 35.1592 16.6945 35.1592H22.9945Z" fill="black"/>
</svg>
