<svg width="43" height="42" viewBox="0 0 43 42" fill="none" xmlns="http://www.w3.org/2000/svg">
<path d="M21.2856 24.675C19.3169 24.675 17.6106 23.1 17.6106 21C17.6106 19.0312 19.1856 17.325 21.2856 17.325C23.2544 17.325 24.9606 18.9 24.9606 21C24.9606 22.9687 23.2544 24.675 21.2856 24.675Z" fill="black"/>
<path fill-rule="evenodd" clip-rule="evenodd" d="M25.7481 12.075H16.8231C15.7731 12.2062 15.2481 12.3375 14.8544 12.4687C14.3294 12.6 13.9356 12.8625 13.5419 13.2562C13.2303 13.5678 13.0831 13.8794 12.9052 14.256C12.8583 14.3552 12.8091 14.4593 12.7544 14.5687C12.7341 14.6297 12.7106 14.6937 12.6855 14.7624C12.5482 15.1375 12.3606 15.6499 12.3606 16.5375V25.4625C12.4919 26.5125 12.6231 27.0375 12.7544 27.4312C12.8856 27.9562 13.1481 28.35 13.5419 28.7437C13.8535 29.0553 14.165 29.2025 14.5416 29.3805C14.641 29.4274 14.7448 29.4765 14.8544 29.5312C14.9153 29.5515 14.9794 29.575 15.048 29.6001C15.4231 29.7374 15.9356 29.925 16.8231 29.925H25.7481C26.7981 29.7937 27.3231 29.6625 27.7169 29.5312C28.2419 29.4 28.6356 29.1375 29.0294 28.7437C29.341 28.4322 29.4882 28.1206 29.6661 27.744C29.713 27.6447 29.7621 27.5408 29.8169 27.4312C29.8372 27.3703 29.8606 27.3063 29.8858 27.2376C30.0231 26.8625 30.2106 26.3501 30.2106 25.4625V16.5375C30.0794 15.4875 29.9481 14.9625 29.8169 14.5687C29.6856 14.0437 29.4231 13.65 29.0294 13.2562C28.7178 12.9447 28.4063 12.7975 28.0297 12.6195C27.9305 12.5727 27.8263 12.5234 27.7169 12.4687C27.656 12.4484 27.5919 12.425 27.5233 12.3999C27.1481 12.2626 26.6357 12.075 25.7481 12.075ZM21.2856 15.3562C18.1356 15.3562 15.6419 17.85 15.6419 21C15.6419 24.15 18.1356 26.6437 21.2856 26.6437C24.4356 26.6437 26.9294 24.15 26.9294 21C26.9294 17.85 24.4356 15.3562 21.2856 15.3562ZM28.3731 15.225C28.3731 15.9499 27.7855 16.5375 27.0606 16.5375C26.3358 16.5375 25.7481 15.9499 25.7481 15.225C25.7481 14.5001 26.3358 13.9125 27.0606 13.9125C27.7855 13.9125 28.3731 14.5001 28.3731 15.225Z" fill="black"/>
<path fill-rule="evenodd" clip-rule="evenodd" d="M0.285645 6.5625C0.285645 2.93813 3.22378 0 6.84814 0H35.7231C39.3475 0 42.2856 2.93813 42.2856 6.5625V35.4375C42.2856 39.0619 39.3475 42 35.7231 42H6.84814C3.22378 42 0.285645 39.0619 0.285645 35.4375V6.5625ZM16.8231 10.1062H25.7481C26.9294 10.2375 27.7169 10.3687 28.3731 10.6312C29.1606 11.025 29.6856 11.2875 30.3419 11.9437C30.9981 12.6 31.3919 13.2562 31.6544 13.9125C31.9169 14.5687 32.1794 15.3562 32.1794 16.5375V25.4625C32.0481 26.6437 31.9169 27.4312 31.6544 28.0875C31.2606 28.875 30.9981 29.4 30.3419 30.0562C29.6856 30.7125 29.0294 31.1062 28.3731 31.3687C27.7169 31.6312 26.9294 31.8937 25.7481 31.8937H16.8231C15.6419 31.7625 14.8544 31.6312 14.1981 31.3687C13.4106 30.975 12.8856 30.7125 12.2294 30.0562C11.5731 29.4 11.1794 28.7437 10.9169 28.0875C10.6544 27.4312 10.3919 26.6437 10.3919 25.4625V16.5375C10.5231 15.3562 10.6544 14.5687 10.9169 13.9125C11.3106 13.125 11.5731 12.6 12.2294 11.9437C12.8856 11.2875 13.5419 10.8937 14.1981 10.6312C14.8544 10.3687 15.6419 10.1062 16.8231 10.1062Z" fill="black"/>
</svg>
