<svg width="66" height="66" viewBox="0 0 66 66" fill="none" xmlns="http://www.w3.org/2000/svg">
<path d="M55.1818 0.137381H25.1782V40.6674H65.688V10.6244C65.688 9.24445 65.416 7.87806 64.8876 6.60356C64.3592 5.32907 63.5848 4.17152 62.6088 3.19728C61.6328 2.22303 60.4743 1.45125 59.1999 0.926173C57.9254 0.401094 56.5599 0.133041 55.1818 0.137381Z" fill="white"/>
<path d="M15.8247 0.137329H10.6539C7.87624 0.137329 5.21233 1.24221 3.24821 3.20891C1.28409 5.17561 0.180664 7.84302 0.180664 10.6244L0.180664 15.8019H15.8247V0.137329Z" fill="white"/>
<path d="M0.180664 25.1677H15.8247V40.8323H0.180664V25.1677Z" fill="white"/>
<path d="M50.1753 65.7307H55.3461C56.7242 65.7307 58.0888 65.4583 59.3616 64.9292C60.6344 64.4002 61.7905 63.6247 62.7634 62.6474C63.7364 61.6701 64.5072 60.5101 65.0316 59.234C65.556 57.9578 65.8237 56.5906 65.8193 55.2107V50.198H50.1753V65.7307Z" fill="white"/>
<path d="M25.1782 50.198H40.8222V65.8626H25.1782V50.198Z" fill="white"/>
<path d="M0.180664 50.198V55.3756C0.180664 58.1569 1.28409 60.8243 3.24821 62.791C5.21233 64.7577 7.87624 65.8626 10.6539 65.8626H15.8247V50.198H0.180664Z" fill="white"/>
</svg>
