<svg width="71" height="85" viewBox="0 0 71 85" fill="none" xmlns="http://www.w3.org/2000/svg">
<circle cx="28.1299" cy="15.6504" r="6.40535" transform="rotate(-50.6424 28.1299 15.6504)" fill="#C4C4C4"/>
<circle cx="28.1299" cy="15.6504" r="6.40535" transform="rotate(-50.6424 28.1299 15.6504)" fill="url(#paint0_radial_865_841)"/>
<circle cx="40.6267" cy="36.1987" r="6.13179" transform="rotate(-50.6424 40.6267 36.1987)" fill="#C4C4C4"/>
<circle cx="40.6267" cy="36.1987" r="6.13179" transform="rotate(-50.6424 40.6267 36.1987)" fill="url(#paint1_radial_865_841)"/>
<circle cx="53.7356" cy="31.5945" r="10.4666" fill="#C4C4C4"/>
<circle cx="53.7356" cy="31.5945" r="10.4666" fill="url(#paint2_radial_865_841)"/>
<path d="M1 72.6558V29.9844M1 72.6558L50.1124 83.5249M1 72.6558L19.9203 44.074M1 29.9844L19.9203 1.40256L69.0327 12.2717V55.3457L50.1124 83.5249M1 29.9844L50.1124 40.8535L69.0327 12.6743M50.1124 83.5249V40.4509M19.9203 44.074L69.0327 54.9431M19.9203 44.074V1" stroke="white" stroke-width="2"/>
<circle cx="14.7174" cy="52.9607" r="7.17253" transform="rotate(-50.6424 14.7174 52.9607)" fill="#C4C4C4"/>
<circle cx="14.7174" cy="52.9607" r="7.17253" transform="rotate(-50.6424 14.7174 52.9607)" fill="url(#paint3_radial_865_841)"/>
<circle cx="36.8279" cy="62.9944" r="4.0256" fill="#C4C4C4"/>
<circle cx="36.8279" cy="62.9944" r="4.0256" fill="url(#paint4_radial_865_841)"/>
<defs>
<radialGradient id="paint0_radial_865_841" cx="0" cy="0" r="1" gradientUnits="userSpaceOnUse" gradientTransform="translate(31.8721 11.7837) rotate(114.157) scale(10.7489 13.6418)">
<stop stop-color="#E9B652"/>
<stop offset="0.624704" stop-color="#E29735"/>
<stop offset="1" stop-color="#E45B62"/>
</radialGradient>
<radialGradient id="paint1_radial_865_841" cx="0" cy="0" r="1" gradientUnits="userSpaceOnUse" gradientTransform="translate(44.2092 32.4972) rotate(114.157) scale(10.2899 13.0592)">
<stop stop-color="#D7325B"/>
<stop offset="0.624704" stop-color="#E35861"/>
<stop offset="1" stop-color="#E68851"/>
</radialGradient>
<radialGradient id="paint2_radial_865_841" cx="0" cy="0" r="1" gradientUnits="userSpaceOnUse" gradientTransform="translate(59.8506 25.2763) rotate(114.157) scale(17.5641 22.2912)">
<stop stop-color="#EB5323"/>
<stop offset="0.624704" stop-color="#811C5E"/>
<stop offset="1" stop-color="#300947"/>
</radialGradient>
<radialGradient id="paint3_radial_865_841" cx="0" cy="0" r="1" gradientUnits="userSpaceOnUse" gradientTransform="translate(18.9079 48.6309) rotate(114.157) scale(12.0363 15.2757)">
<stop stop-color="#3AACB4"/>
<stop offset="0.624704" stop-color="#804889"/>
<stop offset="1" stop-color="#A22451"/>
</radialGradient>
<radialGradient id="paint4_radial_865_841" cx="0" cy="0" r="1" gradientUnits="userSpaceOnUse" gradientTransform="translate(39.1798 60.5643) rotate(114.157) scale(6.75543 8.57354)">
<stop stop-color="#EF8634"/>
<stop offset="0.624704" stop-color="#8E9128"/>
<stop offset="1" stop-color="#467D57"/>
</radialGradient>
</defs>
</svg>
