<svg width="74" height="70" viewBox="0 0 74 70" fill="none" xmlns="http://www.w3.org/2000/svg">
<g clip-path="url(#clip0_865_195)">
<path d="M69.9864 0.928955L41.3984 22.2911L46.7146 9.70169L69.9864 0.928955Z" fill="#D8D9E0" stroke="#D8D9E0" stroke-width="0.25" stroke-linecap="round" stroke-linejoin="round"/>
<path d="M4.04395 0.928955L32.3774 22.4905L27.3158 9.70167L4.04395 0.928955Z" fill="#D8D9E0" stroke="#D8D9E0" stroke-width="0.25" stroke-linecap="round" stroke-linejoin="round"/>
<path d="M59.6924 50.4604L52.0859 62.1954L68.3734 66.7242L73.0392 50.717L59.6924 50.4604Z" fill="#D8D9E0" stroke="#D8D9E0" stroke-width="0.25" stroke-linecap="round" stroke-linejoin="round"/>
<path d="M1.01904 50.717L5.65642 66.7242L21.9157 62.1954L14.3374 50.4604L1.01904 50.717Z" fill="#D8D9E0" stroke="#D8D9E0" stroke-width="0.25" stroke-linecap="round" stroke-linejoin="round"/>
<path d="M21.0389 30.6364L16.5146 37.5293L32.6324 38.2699L32.0952 20.7529L21.0389 30.6364Z" fill="#D8D9E0" stroke="#D8D9E0" stroke-width="0.25" stroke-linecap="round" stroke-linejoin="round"/>
<path d="M52.9913 30.6367L41.7656 20.5538L41.3979 38.2702L57.5156 37.5296L52.9913 30.6367Z" fill="#D8D9E0" stroke="#D8D9E0" stroke-width="0.25" stroke-linecap="round" stroke-linejoin="round"/>
<path d="M21.916 62.1954L31.6714 57.4388L23.2734 50.8308L21.916 62.1954Z" fill="#D8D9E0" stroke="#D8D9E0" stroke-width="0.25" stroke-linecap="round" stroke-linejoin="round"/>
<path d="M42.3599 57.4388L52.087 62.1954L50.7579 50.8308L42.3599 57.4388Z" fill="#D8D9E0" stroke="#D8D9E0" stroke-width="0.25" stroke-linecap="round" stroke-linejoin="round"/>
<path d="M52.087 62.1956L42.3599 57.4391L43.1515 63.8192L43.0666 66.5251L52.087 62.1956Z" fill="#707176" stroke="#707176" stroke-width="0.25" stroke-linecap="round" stroke-linejoin="round"/>
<path d="M21.916 62.1956L30.9647 66.5251L30.9081 63.8192L31.6714 57.4391L21.916 62.1956Z" fill="#707176" stroke="#707176" stroke-width="0.25" stroke-linecap="round" stroke-linejoin="round"/>
<path d="M21.9155 62.1954L23.3295 50.4604L14.3374 50.717L21.9155 62.1954Z" fill="#9CA2AF" stroke="#9CA2AF" stroke-width="0.25" stroke-linecap="round" stroke-linejoin="round"/>
<path d="M50.7012 50.4604L52.0868 62.1954L59.6932 50.717L50.7012 50.4604Z" fill="#9CA2AF" stroke="#9CA2AF" stroke-width="0.25" stroke-linecap="round" stroke-linejoin="round"/>
<path d="M57.5156 37.5292L41.3979 38.2697L42.8966 46.6154L45.2719 41.5737L51.0121 44.2227L57.5156 37.5292Z" fill="#9CA2AF" stroke="#9CA2AF" stroke-width="0.25" stroke-linecap="round" stroke-linejoin="round"/>
<path d="M23.0466 44.2227L28.7585 41.5737L31.1338 46.6154L32.6324 38.2697L16.5146 37.5292L23.0466 44.2227Z" fill="#9CA2AF" stroke="#9CA2AF" stroke-width="0.25" stroke-linecap="round" stroke-linejoin="round"/>
<path d="M16.5146 37.5292L23.2729 50.8308L23.0465 44.2227L16.5146 37.5292Z" fill="#D8D9E0" stroke="#D8D9E0" stroke-width="0.25" stroke-linecap="round" stroke-linejoin="round"/>
<path d="M51.0127 44.2227L50.7583 50.8308L57.5165 37.5292L51.0127 44.2227Z" fill="#D8D9E0" stroke="#D8D9E0" stroke-width="0.25" stroke-linecap="round" stroke-linejoin="round"/>
<path d="M32.6326 38.2698L31.1338 46.6154L33.0283 56.4703L33.4525 43.4822L32.6326 38.2698Z" fill="#D8D9E0" stroke="#D8D9E0" stroke-width="0.25" stroke-linecap="round" stroke-linejoin="round"/>
<path d="M41.3983 38.2698L40.6064 43.4539L41.0024 56.4703L42.8969 46.6154L41.3983 38.2698Z" fill="#D8D9E0" stroke="#D8D9E0" stroke-width="0.25" stroke-linecap="round" stroke-linejoin="round"/>
<path d="M42.8965 46.6156L41.002 56.4705L42.3593 57.439L50.7576 50.8309L51.012 44.2229L42.8965 46.6156Z" fill="white" stroke="white" stroke-width="0.25" stroke-linecap="round" stroke-linejoin="round"/>
<path d="M23.0459 44.2229L23.2723 50.8309L31.6703 57.439L33.0277 56.4705L31.1331 46.6156L23.0459 44.2229Z" fill="white" stroke="white" stroke-width="0.25" stroke-linecap="round" stroke-linejoin="round"/>
<path d="M43.0671 66.525L43.1518 63.8191L42.4167 63.1924H31.615L30.9081 63.8191L30.9647 66.525L21.916 62.1956L25.083 64.8159L31.5019 69.2878H42.5014L48.9486 64.8159L52.0872 62.1956L43.0671 66.525Z" fill="#4E4F57" stroke="#4E4F57" stroke-width="0.25" stroke-linecap="round" stroke-linejoin="round"/>
<path d="M71.202 23.6867L73.6057 11.8949L69.9862 0.928955L42.3599 21.5791L52.9918 30.6365L68.0068 35.0515L71.3152 31.1494L69.8732 30.0954L72.1635 27.9878L70.4104 26.6205L72.7009 24.8546L71.202 23.6867Z" fill="#60626D" stroke="#60626D" stroke-width="0.25" stroke-linecap="round" stroke-linejoin="round"/>
<path d="M0.425293 11.8949L2.8571 23.6867L1.30188 24.8546L3.62057 26.6205L1.86741 27.9878L4.15783 30.0954L2.71571 31.1494L6.0241 35.0515L21.0392 30.6365L31.6711 21.5791L4.04473 0.928955L0.425293 11.8949Z" fill="#60626D" stroke="#60626D" stroke-width="0.25" stroke-linecap="round" stroke-linejoin="round"/>
<path d="M68.0071 35.0512L52.9922 30.6365L57.5165 37.5294L50.7583 50.8307L59.6938 50.7169H73.0404L68.0071 35.0512Z" fill="white" stroke="white" stroke-width="0.25" stroke-linecap="round" stroke-linejoin="round"/>
<path d="M21.0389 30.6365L6.02403 35.0512L1.01904 50.7169H14.3374L23.2728 50.8307L16.5147 37.5294L21.0389 30.6365Z" fill="white" stroke="white" stroke-width="0.25" stroke-linecap="round" stroke-linejoin="round"/>
<path d="M41.3983 38.2699L42.3597 21.5788L46.7142 9.70154H27.3164L31.671 21.5788L32.6324 38.2699L33 43.5107L33.0283 56.4704H41.0023L41.0306 43.5107L41.3983 38.2699Z" fill="white" stroke="white" stroke-width="0.25" stroke-linecap="round" stroke-linejoin="round"/>
</g>
<defs>
<clipPath id="clip0_865_195">
<rect width="74" height="69" fill="white" transform="translate(0 0.5)"/>
</clipPath>
</defs>
</svg>
