<svg width="64" height="64" viewBox="0 0 64 64" fill="none" xmlns="http://www.w3.org/2000/svg">
<path d="M43.8999 61.7051C38.0248 64.0586 31.5837 64.6172 25.3912 63.3101C19.1986 62.003 13.5327 58.8889 9.11001 54.3617C4.68727 49.8345 1.70633 44.0975 0.544152 37.8761C-0.618031 31.6547 0.0907395 25.2284 2.58083 19.4099L16.0743 25.1845C14.7263 28.3343 14.3426 31.8131 14.9717 35.181C15.6009 38.5488 17.2146 41.6545 19.6088 44.1053C22.003 46.556 25.0701 48.2418 28.4224 48.9494C31.7747 49.657 35.2615 49.3546 38.4419 48.0805L43.8999 61.7051Z" fill="white"/>
<path d="M20.1001 2.29493C25.9752 -0.0586493 32.4163 -0.617208 38.6088 0.689895C44.8014 1.997 50.4673 5.11105 54.89 9.63827C59.3127 14.1655 62.2937 19.9025 63.4558 26.1239C64.618 32.3453 63.9093 38.7716 61.4192 44.5901L27.1324 29.9268L49.0283 28.819C48.3991 25.4512 46.7854 22.3455 44.3912 19.8947C41.997 17.444 38.9299 15.7582 35.5776 15.0506C32.2253 14.343 28.7385 14.6454 25.5581 15.9195L20.1001 2.29493Z" fill="white"/>
</svg>
