<svg width="62" height="94" viewBox="0 0 62 94" fill="none" xmlns="http://www.w3.org/2000/svg">
<path d="M1.43604 53.9013L3.66813 52.9446L31 41.0553L60.5639 53.9013L49.4489 76.86L22.2993 80.6864L1.89157 58.6388L1.43604 53.9013Z" fill="#555762"/>
<path d="M54.4141 39.7798C49.5399 33.9035 42.6159 30.077 35.0541 29.0749C34.8719 29.0749 34.7352 29.0293 34.553 29.0293C32.1842 28.756 29.8155 28.756 27.4467 29.0293C27.2645 29.0293 27.1278 29.0749 26.9456 29.0749C19.3838 30.077 12.4598 33.9035 7.5856 39.7798L6.35567 41.8297L4.30578 45.2462L2.80253 47.7516C2.80253 47.8427 2.75698 47.8883 2.71143 47.9338V47.9794L5.99124 49.9382L26.9456 62.3286L30.9999 64.6973V35.0879L26.9456 36.91V32.4914L30.9999 30.6692L35.0541 32.4914L55.644 41.8297L54.4141 39.7798Z" fill="#C42370"/>
<path d="M61.4747 61.2808C61.4292 70.9836 57.0561 80.1398 49.5398 86.2894C46.67 88.6126 43.4357 90.4348 39.9281 91.6192C37.0583 92.5758 34.0518 93.0768 31.0453 93.0768C14.1907 93.0768 0.570312 78.0899 0.570312 61.2808C0.570312 58.7754 0.889184 56.3156 1.48137 53.9012L31.0453 71.3936L60.6092 53.9012C61.1558 56.3156 61.4747 58.7754 61.4747 61.2808Z" fill="#1C4D6B"/>
<path d="M27.4469 28.9837L31 30.6236L26.9458 32.4458V28.8015L27.4469 28.9837Z" fill="black"/>
<path d="M26.9458 36.91L31 35.0424V64.6518L26.9458 62.2831V36.91Z" fill="black"/>
<path d="M31 35.0424V64.6518L59.334 47.9339L31 35.0424Z" fill="#70727A"/>
<path d="M31 0.923096V35.0423L59.334 47.9338L31 0.923096Z" fill="#9DA0B1"/>
<path d="M30.9999 35.0423V64.6517L26.9456 62.283L2.71143 47.9338C2.71143 47.8427 2.75698 47.7971 2.80253 47.7516L6.35567 41.8752L26.9456 32.5369V37.0011L30.9999 35.0423Z" fill="#343535"/>
<path d="M31 35.0424V64.6518L26.9458 62.2831L2.71157 47.9339H2.66602L2.71157 47.8883L26.9458 36.91L31 35.0424Z" fill="#9497A5"/>
<path d="M31 0.923096V35.0423L2.66602 47.9338L31 0.923096Z" fill="white"/>
<path d="M19.5205 90.6626C19.9305 90.8448 20.386 91.027 20.796 91.2092C20.386 91.027 19.976 90.8448 19.5205 90.6626Z" fill="white"/>
<path d="M20.7959 91.1637C21.2059 91.3459 21.6614 91.4826 22.1169 91.6192C21.6614 91.4826 21.2514 91.3459 20.7959 91.1637Z" fill="white"/>
<path d="M23.2559 91.9836C23.6203 92.0747 23.9392 92.1659 24.258 92.257L23.2559 91.9836Z" fill="white"/>
<path d="M1.43596 53.9012L30.9999 71.3936C30.5899 74.0357 29.9066 76.6322 28.8589 79.1376C26.4901 84.8773 21.7071 90.8903 12.4598 86.2894C4.94355 80.1398 0.570455 70.9381 0.524902 61.2353C0.524902 58.7754 0.843774 56.3156 1.43596 53.9012Z" fill="white"/>
<path d="M49.449 86.3351C49.2668 86.4717 49.449 86.3351 48.8568 86.8362L48.5835 87.0184L48.1735 87.2917L47.6725 87.6561C48.1735 87.2917 47.2625 87.9294 47.0803 88.0661C46.898 88.1572 46.7614 88.2483 46.5792 88.385L46.2603 88.6127C46.1692 88.6583 46.0325 88.7494 45.9414 88.8405C45.9414 88.8405 45.8048 88.9772 45.7592 88.9772C45.9414 88.8405 45.5315 89.0683 45.3492 89.2049C45.1215 89.296 44.9393 89.3871 44.7571 89.5238L44.1193 89.8427L43.846 89.9793C43.6638 90.0704 43.7549 89.9793 43.5727 90.116C43.3905 90.2526 43.1627 90.2982 42.9349 90.4349C42.7072 90.5715 42.9349 90.4349 42.1605 90.7993C42.9349 90.4349 42.1605 90.7993 41.7506 90.9815C42.1605 90.7993 41.0217 91.2548 40.5206 91.437C40.3384 91.4826 39.3362 91.8015 39.154 91.847C38.9718 91.8926 38.7441 91.9837 38.5618 92.0292C38.1974 92.1203 37.8785 92.2114 37.5597 92.3025C37.423 92.3481 37.2864 92.3481 37.1953 92.3936L36.9675 92.4392L36.4209 92.5759C36.2386 92.6214 36.102 92.6214 35.9198 92.667C35.7376 92.7125 35.6009 92.7125 35.4642 92.7581C35.3276 92.8036 35.0998 92.8036 34.9632 92.8492C34.872 92.8492 34.7809 92.8492 34.7354 92.8947L34.371 92.9403H34.1888C34.0521 92.9403 33.9154 92.9858 33.7788 92.9858C33.6421 92.9858 33.4144 93.0314 33.2321 93.0314H28.5857C28.4035 93.0314 28.2213 92.9858 28.0391 92.9858C27.9024 92.9858 27.7658 92.9858 27.6291 92.9403H27.4469C27.3102 92.9403 27.1736 92.8947 27.0825 92.8947C26.9914 92.8947 26.9003 92.8947 26.8547 92.8492C26.6725 92.8492 26.5358 92.8036 26.3536 92.7581C26.217 92.7581 26.0348 92.7125 25.8981 92.667C25.7614 92.6214 25.5792 92.6214 25.397 92.5759L24.8504 92.4392L24.6226 92.3936C24.486 92.3936 24.3493 92.3481 24.2582 92.3025C23.8938 92.2114 23.5749 92.1203 23.256 92.0292L22.6638 91.847C22.4816 91.8015 22.2994 91.7559 22.1172 91.6648C21.6617 91.5281 21.2517 91.3459 20.7962 91.2093C20.3406 91.0726 19.9307 90.8448 19.5207 90.6626C19.3385 90.5715 19.1107 90.4804 18.8829 90.3893C18.6552 90.2982 18.4274 90.2071 18.2452 90.0704C18.0174 89.9793 17.8352 89.8882 17.653 89.7516C17.4708 89.6605 17.243 89.5238 17.0608 89.4327C16.8786 89.3416 16.7419 89.2505 16.6053 89.1594C16.1498 88.8861 15.8764 88.7038 16.1498 88.8861L15.8764 88.7038L15.3754 88.385L15.1931 88.2939L14.7376 87.975C14.5554 87.8383 14.3732 87.7472 14.191 87.6106C14.0088 87.4739 13.781 87.3373 13.5988 87.2006C13.4166 87.0639 13.2344 86.8817 13.0977 86.7906L12.9155 86.654C12.7333 86.5629 12.5966 86.4262 12.46 86.2895C21.7072 90.8904 26.4447 84.7863 28.8135 79.0922C29.8157 76.5867 30.5445 73.9902 30.9545 71.3481C31.3645 74.0358 32.0478 76.6778 33.0955 79.1833C35.5553 84.8318 40.2018 90.8904 49.449 86.3351Z" fill="#D5D7DF"/>
<path d="M37.7417 92.257C38.1061 92.1659 38.425 92.0747 38.7439 91.9836L37.7417 92.257Z" fill="white"/>
<path d="M39.8828 91.6192C40.3383 91.4826 40.7483 91.3459 41.2038 91.1637C40.7483 91.3459 40.3383 91.4826 39.8828 91.6192Z" fill="white"/>
<path d="M41.1128 91.2091C41.5228 91.0269 42.0694 90.8447 42.4794 90.6169C42.0239 90.8447 41.5228 91.0269 41.1128 91.2091Z" fill="white"/>
<path d="M61.475 61.2808C61.4294 70.9836 57.0563 80.1398 49.5401 86.2894C40.2928 90.8903 35.5097 84.8317 33.141 79.1376C32.1388 76.6322 31.41 74.0357 31 71.3936L60.5639 53.9012C61.1561 56.3156 61.475 58.7754 61.475 61.2808Z" fill="#9DA0B1"/>
</svg>
