<svg width="43" height="42" viewBox="0 0 43 42" fill="none" xmlns="http://www.w3.org/2000/svg">
<path fill-rule="evenodd" clip-rule="evenodd" d="M6.84814 0H35.7231C39.3475 0 42.2856 2.93813 42.2856 6.5625V35.4375C42.2856 39.0619 39.3475 42 35.7231 42H6.84814C3.22378 42 0.285645 39.0619 0.285645 35.4375V6.5625C0.285645 2.93813 3.22378 0 6.84814 0ZM22.1937 15.7597C20.3129 16.542 16.5539 18.1611 10.9168 20.6171C10.0014 20.9812 9.52188 21.3373 9.47823 21.6855C9.40446 22.274 10.1414 22.5057 11.1449 22.8212C11.2814 22.8642 11.4229 22.9086 11.5679 22.9558C12.5552 23.2767 13.8833 23.6522 14.5737 23.6671C15.2 23.6806 15.899 23.4224 16.6708 22.8925C21.9377 19.3372 24.6565 17.5401 24.8272 17.5014C24.9476 17.474 25.1145 17.4397 25.2276 17.5402C25.3406 17.6407 25.3295 17.831 25.3176 17.882C25.2446 18.1933 22.3518 20.8826 20.8548 22.2744C20.3881 22.7083 20.057 23.016 19.9894 23.0863C19.8378 23.2438 19.6833 23.3927 19.5348 23.5359C18.6175 24.4201 17.9297 25.0832 19.5729 26.166C20.3625 26.6864 20.9944 27.1167 21.6248 27.546C22.3132 28.0148 22.9998 28.4824 23.8882 29.0648C24.1146 29.2131 24.3308 29.3672 24.5413 29.5173C25.3425 30.0885 26.0623 30.6016 26.9515 30.5198C27.4682 30.4723 28.002 29.9864 28.273 28.5373C28.9136 25.1127 30.1728 17.6926 30.4638 14.635C30.4893 14.3671 30.4572 14.0243 30.4315 13.8738C30.4057 13.7232 30.3519 13.5088 30.1563 13.3501C29.9246 13.1621 29.5669 13.1224 29.407 13.1251C28.6797 13.1381 27.5638 13.5261 22.1937 15.7597Z" fill="black"/>
</svg>
