<svg width="48" height="40" viewBox="0 0 48 40" fill="none" xmlns="http://www.w3.org/2000/svg">
<path d="M47.2859 5.00776C45.5328 5.79649 43.6648 6.3193 41.7172 6.57314C43.7207 5.34622 45.2499 3.4182 45.9689 1.0943C44.1008 2.2366 42.0383 3.04347 39.8403 3.49375C38.0665 1.55666 35.5385 0.356934 32.7807 0.356934C27.4299 0.356934 23.1223 4.81133 23.1223 10.272C23.1223 11.0578 23.1871 11.8133 23.3462 12.5325C15.3113 12.1306 8.20155 8.18084 3.42539 2.16408C2.59155 3.64787 2.10244 5.34622 2.10244 7.17452C2.10244 10.6075 3.8261 13.6506 6.39539 15.4124C4.84262 15.3822 3.31932 14.9198 2.02878 14.1915C2.02878 14.2218 2.02878 14.2611 2.02878 14.3003C2.02878 19.1174 5.37887 23.1185 9.77199 24.0402C8.9853 24.2608 8.12789 24.3665 7.23807 24.3665C6.61932 24.3665 5.99467 24.3303 5.40833 24.1973C6.66057 28.1229 10.214 31.0089 14.4391 31.1025C11.1509 33.7407 6.97583 35.3303 2.45601 35.3303C1.66342 35.3303 0.903245 35.294 0.143066 35.1943C4.42423 38.0259 9.49798 39.6427 14.9695 39.6427C32.7541 39.6427 42.4774 24.5328 42.4774 11.4355C42.4774 10.9973 42.4626 10.5742 42.442 10.1542C44.3601 8.75803 45.9718 7.01435 47.2859 5.00776Z" fill="black"/>
</svg>
