<svg width="28" height="28" viewBox="0 0 28 28" fill="none" xmlns="http://www.w3.org/2000/svg">
<g clip-path="url(#clip0_865_121)">
<path fill-rule="evenodd" clip-rule="evenodd" d="M14 28C21.7584 28 28 21.7584 28 14C28 6.24162 21.7584 0 14 0C6.24162 0 0 6.24162 0 14C0 21.7584 6.24162 28 14 28ZM17.85 16.2166C17.85 14.175 16.625 13.475 14.175 13.1834C12.425 12.95 12.075 12.4834 12.075 11.6666C12.075 10.8499 12.6584 10.325 13.825 10.325C14.875 10.325 15.4584 10.675 15.75 11.55C15.8084 11.725 15.9834 11.8416 16.1584 11.8416H17.0916C17.325 11.8416 17.5 11.6666 17.5 11.4334V11.375C17.2666 10.0916 16.2166 9.1 14.875 8.98338V7.58338C14.875 7.35 14.7 7.175 14.4084 7.11662H13.5334C13.3 7.11662 13.125 7.29162 13.0666 7.58338V8.925C11.3166 9.15838 10.2084 10.325 10.2084 11.7834C10.2084 13.7084 11.375 14.4666 13.825 14.7584C15.4584 15.05 15.9834 15.4 15.9834 16.3334C15.9834 17.2668 15.1666 17.9084 14.0584 17.9084C12.5416 17.9084 12.0166 17.2666 11.8416 16.3916C11.7834 16.1584 11.6084 16.0416 11.4334 16.0416H10.4416C10.2084 16.0416 10.0334 16.2166 10.0334 16.45V16.5084C10.2666 17.9666 11.2 19.0166 13.125 19.3084V20.7084C13.125 20.9416 13.3 21.1166 13.5916 21.175H14.4666C14.7 21.175 14.875 21 14.9334 20.7084V19.3084C16.6834 19.0166 17.85 17.7916 17.85 16.2166ZM5.83338 11.1416C4.14162 15.6334 6.475 20.7084 11.025 22.3416C11.2 22.4584 11.375 22.6916 11.375 22.8666V23.6834C11.375 23.8 11.375 23.8584 11.3166 23.9166C11.2584 24.15 11.025 24.2666 10.7916 24.15C7.525 23.1 5.01662 20.5916 3.96662 17.325C2.21662 11.7834 5.25 5.89162 10.7916 4.14162C10.85 4.08338 10.9666 4.08338 11.025 4.08338C11.2584 4.14162 11.375 4.31662 11.375 4.55V5.36662C11.375 5.65838 11.2584 5.83338 11.025 5.95C8.63338 6.825 6.70838 8.69162 5.83338 11.1416ZM16.6834 4.375C16.7416 4.14162 16.975 4.025 17.2084 4.14162C20.4166 5.19162 22.9834 7.7 24.0334 11.025C25.7834 16.5666 22.75 22.4584 17.2084 24.2084C17.15 24.2666 17.0334 24.2666 16.975 24.2666C16.7416 24.2084 16.625 24.0334 16.625 23.8V22.9834C16.625 22.6916 16.7416 22.5166 16.975 22.4C19.3666 21.525 21.2916 19.6584 22.1666 17.2084C23.8584 12.7166 21.525 7.64162 16.975 6.00838C16.8 5.89162 16.625 5.65838 16.625 5.425V4.60838C16.625 4.49162 16.625 4.43338 16.6834 4.375Z" fill="white"/>
</g>
<defs>
<clipPath id="clip0_865_121">
<rect width="28" height="28" fill="white"/>
</clipPath>
</defs>
</svg>
