<svg width="26" height="24" viewBox="0 0 26 24" fill="none" xmlns="http://www.w3.org/2000/svg">
<path d="M15.4497 8.12627V5.14731H22.464V0.513489H3.30082V5.14726H10.3145V8.1377C4.64903 8.42739 0.404785 9.61462 0.404785 11.0354C0.404785 12.4561 4.64903 13.6434 10.3145 13.9331V23.2165C11.182 23.3938 12.0801 23.4865 13 23.4865C13.8369 23.4865 14.6559 23.4096 15.4497 23.2623V13.9445C21.2331 13.6761 25.5952 12.4758 25.5952 11.0354C25.5952 9.59504 21.2331 8.39471 15.4497 8.12627ZM13 12.8665C6.68027 12.8665 1.55713 11.9144 1.55713 10.7397C1.55713 9.73691 5.29066 8.89613 10.3146 8.67187V12.078C11.1663 12.2008 12.0245 12.2625 12.8822 12.2625C13.7404 12.2625 14.5986 12.2008 15.4498 12.078V8.66148C20.5921 8.87044 24.4424 9.72104 24.4424 10.7397C24.4423 11.9144 19.3191 12.8665 13 12.8665Z" fill="white"/>
</svg>
