<svg width="43" height="42" viewBox="0 0 43 42" fill="none" xmlns="http://www.w3.org/2000/svg">
<path fill-rule="evenodd" clip-rule="evenodd" d="M0.285645 6.5625C0.285645 2.93813 3.22378 0 6.84814 0H35.7231C39.3475 0 42.2856 2.93813 42.2856 6.5625V35.4375C42.2856 39.0619 39.3475 42 35.7231 42H6.84814C3.22378 42 0.285645 39.0619 0.285645 35.4375V6.5625ZM12.2556 11.97C10.7856 13.454 10.7856 15.827 10.7856 20.58V21.42C10.7856 26.166 10.7856 28.539 12.2556 30.03C13.7396 31.5 16.1126 31.5 20.8656 31.5H21.7056C26.4516 31.5 28.8246 31.5 30.3156 30.03C31.7856 28.546 31.7856 26.173 31.7856 21.42V20.58C31.7856 15.834 31.7856 13.461 30.3156 11.97C28.8316 10.5 26.4586 10.5 21.7056 10.5H20.8656C16.1196 10.5 13.7466 10.5 12.2556 11.97Z" fill="black"/>
<path d="M21.9576 25.627C17.1696 25.627 14.4396 22.351 14.3276 16.891H16.7356C16.8126 20.895 18.5766 22.589 19.9766 22.939V16.891H22.2376V20.342C23.6166 20.195 25.0727 18.62 25.5627 16.884H27.8166C27.6329 17.7826 27.2657 18.6337 26.7382 19.384C26.2107 20.1344 25.5341 20.7679 24.7506 21.245C25.6249 21.6801 26.397 22.2956 27.016 23.051C27.6349 23.8063 28.0868 24.6843 28.3416 25.627H25.8566C25.3246 23.968 23.9946 22.68 22.2376 22.505V25.627H21.9576Z" fill="black"/>
</svg>
