<svg width="84" height="52" viewBox="0 0 84 52" fill="none" xmlns="http://www.w3.org/2000/svg">
<g clip-path="url(#clip0_865_229)">
<path d="M17.203 10.1909C30.8981 -3.26953 53.1023 -3.26953 66.7975 10.1909L68.4457 11.8109C69.1304 12.4839 69.1304 13.5751 68.4457 14.2481L62.8074 19.7898C62.465 20.1263 61.9099 20.1263 61.5676 19.7898L59.2994 17.5605C49.7453 8.17015 34.2551 8.17015 24.701 17.5605L22.272 19.9479C21.9296 20.2844 21.3745 20.2844 21.0321 19.9479L15.3939 14.4062C14.7091 13.7332 14.7091 12.642 15.3939 11.969L17.203 10.1909ZM78.4579 21.6517L83.476 26.5838C84.1608 27.2568 84.1608 28.348 83.476 29.021L60.8492 51.2604C60.1644 51.9335 59.0542 51.9335 58.3694 51.2604C58.3694 51.2604 58.3694 51.2604 58.3694 51.2604L42.3103 35.4765C42.1391 35.3082 41.8615 35.3082 41.6903 35.4765C41.6903 35.4765 41.6903 35.4765 41.6903 35.4765L25.6315 51.2604C24.9468 51.9335 23.8366 51.9335 23.1518 51.2605C23.1518 51.2605 23.1518 51.2604 23.1518 51.2604L0.52431 29.0207C-0.160447 28.3477 -0.160447 27.2565 0.52431 26.5835L5.5424 21.6514C6.22715 20.9783 7.33736 20.9783 8.02212 21.6514L24.0815 37.4356C24.2527 37.6038 24.5303 37.6038 24.7014 37.4356C24.7014 37.4356 24.7015 37.4356 24.7015 37.4356L40.76 21.6514C41.4448 20.9783 42.555 20.9783 43.2398 21.6513C43.2398 21.6513 43.2398 21.6513 43.2398 21.6513L59.2992 37.4356C59.4704 37.6038 59.7479 37.6038 59.9191 37.4356L75.9782 21.6517C76.663 20.9786 77.7732 20.9786 78.4579 21.6517Z" fill="white"/>
</g>
<defs>
<clipPath id="clip0_865_229">
<rect width="84" height="52" fill="white"/>
</clipPath>
</defs>
</svg>
