<svg width="61" height="42" viewBox="0 0 61 42" fill="none" xmlns="http://www.w3.org/2000/svg">
<path d="M58.7857 6.375C58.0357 3.75 56.1607 1.875 53.5357 1.125C49.0357 6.70552e-07 29.9106 0 29.9106 0C29.9106 0 11.1607 6.70552e-07 6.28567 1.125C3.66067 1.875 1.78563 3.75 1.03563 6.375C0.285633 11.25 0.285645 21 0.285645 21C0.285645 21 0.285656 30.75 1.41066 35.625C2.16066 38.25 4.03563 40.125 6.66063 40.875C11.1606 42 30.2856 42 30.2856 42C30.2856 42 49.0356 42 53.9106 40.875C56.5356 40.125 58.4107 38.25 59.1607 35.625C60.2857 30.75 60.2856 21 60.2856 21C60.2856 21 60.2857 11.25 58.7857 6.375ZM24.2856 30V12L40.0357 21L24.2856 30Z" fill="black"/>
</svg>
